{"title":"Fear the Walking Dead S03E03 720p HDTV HEVC 2CH x265","magnet":"magnet:?xt=urn:btih:b80e6b2ca31c618f8304458fbbd2f43a7557dd6b&dn=Fear+the+Walking+Dead+S03E03+720p+HDTV+HEVC+2CH+x265&tr=udp%3A%2F%2Ftracker.leechers-paradise.org%3A6969&tr=udp%3A%2F%2Fzer0day.ch%3A1337&tr=udp%3A%2F%2Fopen.demonii.com%3A1337&tr=udp%3A%2F%2Ftracker.coppersurfer.tk%3A6969&tr=udp%3A%2F%2Fexodus.desync.com%3A6969","uploader":"nayhtut","categoryP":"video","categoryS":"hd___tv_shows","size":"345179179","seeders":"87","leechers":"17","description":"Source: Fear the Walking Dead S03E03 720p HDTV x264-AVS (912 MB)\r\n\r\n\r\nComplete name: Fear.the.Walking.Dead.S03E03.720p.HDTV.HEVC.2CH.x265.mkv\r\nFormat                                   : Matroska\r\nFormat version                           : Version 4 / Version 2\r\nFile size                                : 329 MiB\r\nDuration                                 : 42mn 47s\r\nOverall bit rate                         : 1 076 Kbps\r\nWriting application                      : Lavf57.25.100\r\n\r\nVideo\r\n\r\nID                                       : 1\r\nFormat                                   : V_MPEGH/ISO/HEVC\r\nDuration                                 : 42mn 47s\r\nBit rate                                 : 830 Kbps\r\nWidth                                    : 1 280 pixels\r\nHeight                                   : 720 pixels\r\nDisplay aspect ratio                     : 16:9\r\nFrame rate                               : 25.000 fps\r\nBits/(Pixel*Frame)                       : 0.036\r\nStream size                              : 254 MiB (77%)\r\nDefault                                  : Yes\r\nForced                                   : No\r\nDURATION                                 : 00:42:47.211000000\r\n\r\nAudio\r\n\r\nID                                       : 2\r\nFormat                                   : AC-3\r\nFormat/Info                              : Audio Coding 3\r\nMode extension                           : CM (complete main)\r\nFormat settings, Endianness              : Big\r\nCodec ID                                 : A_AC3\r\nDuration                                 : 42mn 47s\r\nBit rate mode                            : Constant\r\nBit rate                                 : 224 Kbps\r\nChannel(s)                               : 2 channels\r\nChannel positions                        : Front: L R\r\nSampling rate                            : 48.0 KHz\r\nBit depth                                : 32 bits\r\nCompression mode                         : Lossy\r\nStream size                              : 68.6 MiB (21%)\r\nWriting library                          : Lavc57.24.102 ac3\r\nDefault                                  : Yes\r\nForced                                   : No\r\nDURATION                                 : 00:42:47.199000000","last_updated":"2017-06-12T12:06:36.422Z","parsed":{"xt":"urn:btih:b80e6b2ca31c618f8304458fbbd2f43a7557dd6b","dn":"Fear the Walking Dead S03E03 720p HDTV HEVC 2CH x265","tr":["udp://exodus.desync.com:6969","udp://open.demonii.com:1337","udp://tracker.coppersurfer.tk:6969","udp://tracker.leechers-paradise.org:6969","udp://zer0day.ch:1337"],"infoHash":"b80e6b2ca31c618f8304458fbbd2f43a7557dd6b","infoHashBuffer":{"type":"Buffer","data":[184,14,107,44,163,28,97,143,131,4,69,143,187,210,244,58,117,87,221,107]},"name":"Fear the Walking Dead S03E03 720p HDTV HEVC 2CH x265","announce":["udp://exodus.desync.com:6969","udp://open.demonii.com:1337","udp://tracker.coppersurfer.tk:6969","udp://tracker.leechers-paradise.org:6969","udp://zer0day.ch:1337"],"urlList":[]}}